<svg id="visual" viewBox="0 0 960 540" width="960" height="540" xmlns="http://www.w3.org/2000/svg" xmlns:xlink="http://www.w3.org/1999/xlink" version="1.1"><path d="M0 82L20 78.3C40 74.7 80 67.3 120 62.8C160 58.3 200 56.7 240 59.5C280 62.3 320 69.7 360 69.7C400 69.7 440 62.3 480 56C520 49.7 560 44.3 600 53.3C640 62.3 680 85.7 720 89.2C760 92.7 800 76.3 840 70C880 63.7 920 67.3 940 69.2L960 71L960 0L940 0C920 0 880 0 840 0C800 0 760 0 720 0C680 0 640 0 600 0C560 0 520 0 480 0C440 0 400 0 360 0C320 0 280 0 240 0C200 0 160 0 120 0C80 0 40 0 20 0L0 0Z" fill="#0066ff"></path><path d="M0 131L20 136.3C40 141.7 80 152.3 120 157.7C160 163 200 163 240 156.7C280 150.3 320 137.7 360 135C400 132.3 440 139.7 480 149.7C520 159.7 560 172.3 600 176.8C640 181.3 680 177.7 720 175.8C760 174 800 174 840 164C880 154 920 134 940 124L960 114L960 69L940 67.2C920 65.3 880 61.7 840 68C800 74.3 760 90.7 720 87.2C680 83.7 640 60.3 600 51.3C560 42.3 520 47.7 480 54C440 60.3 400 67.7 360 67.7C320 67.7 280 60.3 240 57.5C200 54.7 160 56.3 120 60.8C80 65.3 40 72.7 20 76.3L0 80Z" fill="#007fff"></path><path d="M0 233L20 242C40 251 80 269 120 281.7C160 294.3 200 301.7 240 289.2C280 276.7 320 244.3 360 253.3C400 262.3 440 312.7 480 332.3C520 352 560 341 600 335.5C640 330 680 330 720 322.8C760 315.7 800 301.3 840 298.7C880 296 920 305 940 309.5L960 314L960 112L940 122C920 132 880 152 840 162C800 172 760 172 720 173.8C680 175.7 640 179.3 600 174.8C560 170.3 520 157.7 480 147.7C440 137.7 400 130.3 360 133C320 135.7 280 148.3 240 154.7C200 161 160 161 120 155.7C80 150.3 40 139.7 20 134.3L0 129Z" fill="#0094ff"></path><path d="M0 309L20 316.2C40 323.3 80 337.7 120 353C160 368.3 200 384.7 240 375.7C280 366.7 320 332.3 360 331.3C400 330.3 440 362.7 480 375.3C520 388 560 381 600 375.7C640 370.3 680 366.7 720 362.2C760 357.7 800 352.3 840 359.5C880 366.7 920 386.3 940 396.2L960 406L960 312L940 307.5C920 303 880 294 840 296.7C800 299.3 760 313.7 720 320.8C680 328 640 328 600 333.5C560 339 520 350 480 330.3C440 310.7 400 260.3 360 251.3C320 242.3 280 274.7 240 287.2C200 299.7 160 292.3 120 279.7C80 267 40 249 20 240L0 231Z" fill="#00a7ff"></path><path d="M0 541L20 541C40 541 80 541 120 541C160 541 200 541 240 541C280 541 320 541 360 541C400 541 440 541 480 541C520 541 560 541 600 541C640 541 680 541 720 541C760 541 800 541 840 541C880 541 920 541 940 541L960 541L960 404L940 394.2C920 384.3 880 364.7 840 357.5C800 350.3 760 355.7 720 360.2C680 364.7 640 368.3 600 373.7C560 379 520 386 480 373.3C440 360.7 400 328.3 360 329.3C320 330.3 280 364.7 240 373.7C200 382.7 160 366.3 120 351C80 335.7 40 321.3 20 314.2L0 307Z" fill="#00b9ff"></path></svg>